<svg xmlns="http://www.w3.org/2000/svg" xmlns:xlink="http://www.w3.org/1999/xlink" width="500" zoomAndPan="magnify" viewBox="0 0 375 374.999991" height="500" preserveAspectRatio="xMidYMid meet" version="1.0"><defs><g/><clipPath id="5eb638a9f7"><path d="M 65.652344 167.34375 L 309.402344 167.34375 L 309.402344 207.84375 L 65.652344 207.84375 Z M 65.652344 167.34375 " clip-rule="nonzero"/></clipPath></defs><rect x="-37.5" width="450" fill="#ffffff" y="-37.499999" height="449.999989" fill-opacity="1"/><rect x="-37.5" width="450" fill="#ffffff" y="-37.499999" height="449.999989" fill-opacity="1"/><rect x="-37.5" width="450" fill="#000000" y="-37.499999" height="449.999989" fill-opacity="1"/><g fill="#ffffff" fill-opacity="1"><g transform="translate(97.241043, 253.874983)"><g><path d="M 53.027344 -33.203125 C 53.027344 -27.050781 49.21875 -21.386719 42.675781 -21.386719 C 36.035156 -21.386719 32.226562 -27.050781 32.226562 -33.203125 L 32.226562 -131.34375 C 32.226562 -133.394531 31.640625 -135.152344 29.296875 -135.152344 L 8.691406 -135.152344 C 7.324219 -135.152344 6.152344 -133.394531 6.152344 -131.34375 L 6.152344 -31.738281 C 6.152344 -12.988281 23.046875 2.148438 42.578125 2.148438 C 62.109375 2.148438 79.097656 -12.988281 79.097656 -31.738281 L 79.097656 -131.246094 C 79.097656 -133.199219 78.121094 -135.152344 75.976562 -135.152344 L 56.152344 -135.152344 C 54.101562 -135.152344 53.027344 -133.296875 53.027344 -131.246094 Z M 53.027344 -33.203125 "/></g></g></g><g fill="#ffffff" fill-opacity="1"><g transform="translate(192.492828, 253.874983)"><g><path d="M 32.226562 -101.949219 C 32.226562 -108.101562 36.035156 -113.667969 42.675781 -113.667969 C 49.21875 -113.667969 53.027344 -108.101562 53.027344 -101.949219 L 53.027344 -54.980469 L 32.226562 -54.980469 Z M 79.097656 -103.414062 C 79.097656 -122.164062 62.109375 -137.300781 42.578125 -137.300781 C 23.046875 -137.300781 6.152344 -122.164062 6.152344 -103.414062 L 6.152344 -3.808594 C 6.152344 -1.757812 7.226562 0 8.691406 0 L 29.296875 0 C 31.640625 0 32.226562 -1.660156 32.226562 -3.808594 L 32.226562 -32.226562 L 53.027344 -32.226562 L 53.027344 -3.90625 C 53.027344 -1.855469 54.199219 0 56.152344 0 L 75.976562 0 C 78.21875 0 79.097656 -1.953125 79.097656 -3.90625 Z M 79.097656 -103.414062 "/></g></g></g><g clip-path="url(#5eb638a9f7)"><path fill="#000000" d="M 65.65625 167.34375 L 309.398438 167.34375 L 309.398438 207.84375 L 65.65625 207.84375 L 65.65625 167.34375 " fill-opacity="1" fill-rule="nonzero"/></g><g fill="#ffffff" fill-opacity="1"><g transform="translate(142.27285, 193.874987)"><g><path d="M 4.769531 -2.988281 C 4.769531 -2.433594 4.429688 -1.925781 3.839844 -1.925781 C 3.242188 -1.925781 2.898438 -2.433594 2.898438 -2.988281 L 2.898438 -11.816406 C 2.898438 -12 2.847656 -12.160156 2.636719 -12.160156 L 0.78125 -12.160156 C 0.660156 -12.160156 0.554688 -12 0.554688 -11.816406 L 0.554688 -2.855469 C 0.554688 -1.167969 2.074219 0.191406 3.832031 0.191406 C 5.585938 0.191406 7.117188 -1.167969 7.117188 -2.855469 L 7.117188 -11.808594 C 7.117188 -11.984375 7.027344 -12.160156 6.835938 -12.160156 L 5.050781 -12.160156 C 4.867188 -12.160156 4.769531 -11.992188 4.769531 -11.808594 Z M 4.769531 -2.988281 "/></g></g></g><g fill="#ffffff" fill-opacity="1"><g transform="translate(159.210672, 193.874987)"><g><path d="M 2.96875 -10.023438 L 3.839844 -10.023438 C 4.4375 -10.023438 4.847656 -9.679688 4.847656 -8.945312 L 4.847656 -3.1875 C 4.847656 -2.589844 4.472656 -2.136719 3.882812 -2.117188 L 2.96875 -2.117188 Z M 0.632812 -0.332031 C 0.632812 -0.121094 0.730469 0 0.929688 0 L 3.996094 0 C 5.789062 -0.015625 7.1875 -1.097656 7.1875 -3.117188 L 7.1875 -9.039062 C 7.1875 -11.050781 5.796875 -12.140625 3.980469 -12.160156 L 0.929688 -12.160156 C 0.746094 -12.160156 0.632812 -12.027344 0.632812 -11.816406 Z M 0.632812 -0.332031 "/></g></g></g><g fill="#ffffff" fill-opacity="1"><g transform="translate(176.104573, 193.874987)"><g><path d="M 2.898438 -9.171875 C 2.898438 -9.726562 3.242188 -10.226562 3.839844 -10.226562 C 4.429688 -10.226562 4.769531 -9.726562 4.769531 -9.171875 L 4.769531 -4.945312 L 2.898438 -4.945312 Z M 7.117188 -9.304688 C 7.117188 -10.992188 5.585938 -12.351562 3.832031 -12.351562 C 2.074219 -12.351562 0.554688 -10.992188 0.554688 -9.304688 L 0.554688 -0.34375 C 0.554688 -0.15625 0.648438 0 0.78125 0 L 2.636719 0 C 2.847656 0 2.898438 -0.148438 2.898438 -0.34375 L 2.898438 -2.898438 L 4.769531 -2.898438 L 4.769531 -0.351562 C 4.769531 -0.167969 4.875 0 5.050781 0 L 6.835938 0 C 7.035156 0 7.117188 -0.175781 7.117188 -0.351562 Z M 7.117188 -9.304688 "/></g></g></g><g fill="#ffffff" fill-opacity="1"><g transform="translate(193.042397, 193.874987)"><g><path d="M 4.8125 -4.882812 C 6.027344 -5.28125 6.933594 -6.289062 6.933594 -7.757812 L 6.933594 -11.964844 C 6.933594 -12.089844 6.863281 -12.160156 6.746094 -12.160156 L 4.777344 -12.160156 C 4.648438 -12.160156 4.585938 -12.070312 4.585938 -11.957031 L 4.585938 -7.828125 C 4.585938 -7.273438 4.253906 -6.828125 3.644531 -6.828125 C 3.039062 -6.828125 2.714844 -7.328125 2.714844 -7.878906 L 2.714844 -11.972656 C 2.714844 -12.070312 2.636719 -12.160156 2.496094 -12.160156 L 0.5625 -12.160156 C 0.429688 -12.160156 0.378906 -12.070312 0.378906 -11.957031 L 0.367188 -7.757812 C 0.367188 -6.324219 1.265625 -5.296875 2.476562 -4.894531 L 2.476562 -0.34375 C 2.476562 -0.121094 2.554688 0 2.742188 0 L 4.558594 0 C 4.742188 0 4.8125 -0.121094 4.8125 -0.34375 Z M 4.8125 -4.882812 "/></g></g></g><g fill="#ffffff" fill-opacity="1"><g transform="translate(209.611318, 193.874987)"><g><path d="M 2.898438 -9.171875 C 2.898438 -9.726562 3.242188 -10.226562 3.839844 -10.226562 C 4.429688 -10.226562 4.769531 -9.726562 4.769531 -9.171875 L 4.769531 -4.945312 L 2.898438 -4.945312 Z M 7.117188 -9.304688 C 7.117188 -10.992188 5.585938 -12.351562 3.832031 -12.351562 C 2.074219 -12.351562 0.554688 -10.992188 0.554688 -9.304688 L 0.554688 -0.34375 C 0.554688 -0.15625 0.648438 0 0.78125 0 L 2.636719 0 C 2.847656 0 2.898438 -0.148438 2.898438 -0.34375 L 2.898438 -2.898438 L 4.769531 -2.898438 L 4.769531 -0.351562 C 4.769531 -0.167969 4.875 0 5.050781 0 L 6.835938 0 C 7.035156 0 7.117188 -0.175781 7.117188 -0.351562 Z M 7.117188 -9.304688 "/></g></g></g><g fill="#ffffff" fill-opacity="1"><g transform="translate(226.549139, 193.874987)"><g><path d="M 6.835938 0 C 7.027344 0 7.117188 -0.175781 7.117188 -0.351562 L 7.117188 -9.304688 C 7.117188 -10.992188 5.585938 -12.351562 3.832031 -12.351562 C 2.074219 -12.351562 0.554688 -10.992188 0.554688 -9.304688 L 0.554688 -0.34375 C 0.554688 -0.15625 0.648438 0 0.78125 0 L 2.636719 0 C 2.835938 0 2.898438 -0.148438 2.898438 -0.34375 L 2.898438 -9.171875 C 2.898438 -9.726562 3.242188 -10.226562 3.839844 -10.226562 C 4.429688 -10.226562 4.769531 -9.726562 4.769531 -9.171875 L 4.769531 -0.351562 C 4.769531 -0.167969 4.875 0 5.050781 0 Z M 6.835938 0 "/></g></g></g><path stroke-linecap="butt" transform="matrix(1.500563, 0, 0, 1.5, 93.783896, 168.092773)" fill="none" stroke-linejoin="miter" d="M 0.000839891 0.000651359 L 124.953974 0.000651359 " stroke="#ffffff" stroke-width="1" stroke-opacity="1" stroke-miterlimit="4"/><path stroke-linecap="butt" transform="matrix(1.500563, 0, 0, 1.5, 93.783896, 206.907217)" fill="none" stroke-linejoin="miter" d="M 0.000839891 -0.000644542 L 124.953974 -0.000644542 " stroke="#ffffff" stroke-width="1" stroke-opacity="1" stroke-miterlimit="4"/></svg>